<svg width="25" height="24" viewBox="0 0 25 24" fill="none" xmlns="http://www.w3.org/2000/svg">
<g clip-path="url(#clip0_30_1569)">
<g clip-path="url(#clip1_30_1569)">
<path d="M10.9345 0.0764046C8.50166 0.390467 6.17197 1.47797 4.35791 3.1514C2.22041 5.12484 0.856348 7.81078 0.55166 10.6514C0.486035 11.2373 0.486035 12.7655 0.55166 13.3514C1.10479 18.4608 5.0001 22.7452 10.0251 23.7717C11.586 24.0858 13.5267 24.0858 15.0267 23.7623C17.872 23.1483 20.3798 21.5358 22.1329 19.1967C23.3938 17.5139 24.172 15.5873 24.4298 13.5014C24.5235 12.742 24.5235 11.2655 24.4298 10.5014C24.2235 8.82328 23.6423 7.15922 22.7751 5.74828C20.8438 2.60297 17.6282 0.521717 14.0001 0.0717163C13.2735 -0.0173454 11.647 -0.0126591 10.9345 0.0764046ZM14.1923 1.84828C16.3485 2.2139 18.2095 3.17953 19.7657 4.73578C21.3782 6.34828 22.3532 8.2889 22.7001 10.5952C22.8126 11.3264 22.8126 12.6764 22.7001 13.4077C22.3673 15.6202 21.4438 17.5139 19.9063 19.1452C18.9126 20.1998 17.2954 21.2358 15.8938 21.7186C13.9954 22.3748 11.9938 22.4733 10.0673 22.0045C8.66104 21.6577 7.22197 20.9545 6.0876 20.0452C4.32979 18.6436 3.03135 16.6139 2.49697 14.4342C2.10791 12.8405 2.10791 11.1623 2.49697 9.56859C2.94697 7.73578 3.87041 6.09984 5.23447 4.73578C7.01104 2.95922 9.19072 1.95609 11.797 1.71703C12.3126 1.67015 13.536 1.73578 14.1923 1.84828Z" fill="white"/>
<path d="M11.5019 6.02484C11.0331 6.11391 10.5269 6.31078 10.1894 6.53578C8.96126 7.35141 8.89095 8.89359 10.0769 8.98734C10.4613 9.02016 10.6113 8.94047 10.855 8.58422C11.2394 8.02172 11.6284 7.81078 12.2894 7.81547C12.7347 7.81547 12.9644 7.87172 13.2597 8.05922C13.8034 8.40141 13.8363 9.11859 13.3394 9.71859C13.2597 9.81703 12.9316 10.1077 12.6128 10.3655C11.5722 11.2045 11.2675 11.7952 11.2628 12.9858C11.2581 13.8764 11.3847 14.0639 12.0316 14.1014C12.4628 14.1248 12.7581 14.0498 12.9222 13.8764C13.0347 13.7545 13.0488 13.6936 13.0956 13.1405C13.1659 12.2639 13.2738 12.0717 14.1128 11.3733C15.1956 10.4733 15.73 9.54516 15.7347 8.57953C15.7347 7.40297 14.8816 6.44672 13.5081 6.09047C13.0066 5.96391 12.0128 5.93109 11.5019 6.02484Z" fill="white"/>
<path d="M11.9049 15.1936C11.6283 15.2452 11.4689 15.3389 11.2486 15.578C11.0189 15.8264 10.9346 16.0608 10.9346 16.4311C10.9393 16.7639 11.0236 16.9796 11.2393 17.228C11.858 17.9311 13.0627 17.6593 13.3252 16.7546C13.583 15.8546 12.8189 15.0155 11.9049 15.1936Z" fill="white"/>
</g>
</g>
<defs>
<clipPath id="clip0_30_1569">
<rect width="24" height="24" fill="white" transform="translate(0.5 0.00146484)"/>
</clipPath>
<clipPath id="clip1_30_1569">
<rect width="24" height="24" fill="white" transform="translate(0.5 0.00146484)"/>
</clipPath>
</defs>
</svg>
