<svg width="25" height="24" viewBox="0 0 25 24" fill="none" xmlns="http://www.w3.org/2000/svg">
<rect x="0.5" width="24.0015" height="24.0015" rx="0.827654" fill="url(#paint0_linear_30_1547)"/>
<circle cx="5.30069" cy="7.9451" r="1.48966" fill="white"/>
<circle cx="19.7016" cy="7.94534" r="1.48966" fill="white"/>
<path fill-rule="evenodd" clip-rule="evenodd" d="M21.1182 12.9008C21.261 13.1349 21.187 13.4405 20.9529 13.5833C18.3819 15.1521 15.8106 15.2147 13.8975 14.8904C12.9416 14.7284 12.1454 14.4694 11.5867 14.2502C11.307 14.1405 11.0858 14.0404 10.9328 13.9667C10.8562 13.9299 10.7966 13.8996 10.7552 13.878C10.7344 13.8672 10.7182 13.8586 10.7067 13.8523C10.701 13.8492 10.6964 13.8467 10.693 13.8448L10.6888 13.8425L10.6874 13.8417L10.6868 13.8414C10.6866 13.8413 10.6864 13.8412 10.9261 13.4125L10.6864 13.8412C10.447 13.7073 10.3615 13.4048 10.4954 13.1654C10.6292 12.9263 10.9313 12.8407 11.1706 12.9741L11.1717 12.9747L11.1791 12.9788C11.1864 12.9827 11.1982 12.989 11.2144 12.9975C11.2469 13.0144 11.297 13.0399 11.3635 13.0719C11.4965 13.136 11.695 13.2259 11.9493 13.3257C12.4587 13.5255 13.1884 13.763 14.0635 13.9113C15.8125 14.2077 18.1239 14.1462 20.4357 12.7356C20.6698 12.5927 20.9753 12.6667 21.1182 12.9008Z" fill="white"/>
<defs>
<linearGradient id="paint0_linear_30_1547" x1="12.5007" y1="0" x2="12.5007" y2="24.0015" gradientUnits="userSpaceOnUse">
<stop stop-color="#50E609"/>
<stop offset="1" stop-color="#AFF36B"/>
</linearGradient>
</defs>
</svg>
