<svg width="25" height="24" viewBox="0 0 25 24" fill="none" xmlns="http://www.w3.org/2000/svg">
<g clip-path="url(#clip0_30_1558)">
<g clip-path="url(#clip1_30_1558)">
<path d="M17.4361 2.57961C17.2299 2.62648 17.0799 2.73429 16.9205 2.93586L16.7893 3.10929L16.7752 4.55773L16.7611 6.00148H13.644C10.208 6.00148 10.3955 5.98742 10.119 6.30148C9.75333 6.71867 9.90802 7.41711 10.4096 7.64679C10.5924 7.73117 10.7846 7.73586 14.2111 7.73586C17.619 7.73586 17.8299 7.73117 18.008 7.64679C18.2236 7.54836 18.3783 7.39367 18.4486 7.20617C18.4768 7.13117 18.5002 6.73742 18.5002 6.31554V5.55617L20.4455 7.50148L22.3908 9.44679L20.4596 11.3827L18.5236 13.314L18.5002 12.4796C18.4768 11.6499 18.4768 11.6405 18.3455 11.4718C18.069 11.1062 18.4861 11.1343 13.0768 11.1202L8.23458 11.1109V9.74211C8.23458 8.46242 8.2299 8.36398 8.14083 8.17648C7.95802 7.80148 7.48927 7.60461 7.08146 7.73586C6.93146 7.78273 6.29865 8.39211 3.76271 10.9187C1.95333 12.7234 0.603332 14.1062 0.565832 14.1905C0.472082 14.4109 0.481457 14.7859 0.58927 14.9921C0.706457 15.2171 6.75333 21.2452 6.96896 21.353C7.2924 21.5171 7.7424 21.4421 7.98615 21.1796C8.22052 20.9312 8.23458 20.8187 8.23458 19.3609V18.0015H11.3518C14.7924 18.0015 14.6049 18.0155 14.8815 17.7015C15.2471 17.2843 15.0924 16.5859 14.5908 16.3562C14.408 16.2718 14.2158 16.2671 10.7893 16.2671C7.38146 16.2671 7.17052 16.2718 6.9924 16.3562C6.77677 16.4546 6.62208 16.6093 6.55177 16.7968C6.52365 16.8718 6.50021 17.2655 6.50021 17.6874V18.4468L4.55489 16.5015L2.60958 14.5562L4.54083 12.6202L6.47677 10.689L6.50021 11.5234C6.52365 12.353 6.52365 12.3624 6.6549 12.5312C6.93146 12.8968 6.51427 12.8687 11.9283 12.8827L16.7658 12.8921V14.2609C16.7658 15.5405 16.7705 15.639 16.8596 15.8265C17.0424 16.2015 17.5111 16.3984 17.919 16.2671C18.069 16.2202 18.7018 15.6109 21.2377 13.0843C23.0471 11.2796 24.3971 9.89679 24.4346 9.81242C24.5283 9.59679 24.519 9.21711 24.4111 9.01086C24.3596 8.91242 22.944 7.46398 21.2096 5.73898C18.2846 2.81867 18.0877 2.63586 17.8815 2.58429C17.6377 2.52804 17.6471 2.52804 17.4361 2.57961Z" fill="white"/>
</g>
</g>
<defs>
<clipPath id="clip0_30_1558">
<rect width="24" height="24" fill="white" transform="translate(0.5 0.00146484)"/>
</clipPath>
<clipPath id="clip1_30_1558">
<rect width="24" height="24" fill="white" transform="translate(0.5 0.00146484)"/>
</clipPath>
</defs>
</svg>
