<svg width="25" height="24" viewBox="0 0 25 24" fill="none" xmlns="http://www.w3.org/2000/svg">
<g clip-path="url(#clip0_30_1564)">
<path d="M11.375 0.0670891C9.88438 0.334276 8.68906 0.948339 7.62969 1.98428C6.64063 2.95459 5.97969 4.1499 5.67969 5.53271C5.5625 6.06709 5.53438 7.4124 5.62344 7.99834C5.8625 9.49834 6.51406 10.778 7.58281 11.8515C7.79844 12.0671 8.09375 12.3343 8.24375 12.4468L8.51562 12.6483L8.17344 12.7749C7.11875 13.1687 5.71719 13.9937 4.8125 14.7577C3.57031 15.7983 2.45 17.2093 1.74688 18.6015C0.992188 20.1015 0.504688 22.0327 0.5 23.5421V24.0015H1.45625H2.40781L2.43594 23.3827C2.54375 20.9874 3.59844 18.6577 5.37969 16.8812C6.89375 15.3671 8.675 14.439 10.8594 14.0312C11.4969 13.914 13.5031 13.914 14.1406 14.0312C16.325 14.439 18.1063 15.3671 19.6203 16.8812C21.1297 18.3858 22.0906 20.2327 22.4609 22.3374C22.5031 22.5671 22.55 23.0405 22.5641 23.3827L22.5922 24.0015H23.5438H24.5V23.5421C24.4953 22.0327 24.0078 20.1015 23.2531 18.6015C22.55 17.2093 21.4297 15.7983 20.1875 14.7577C19.2828 13.9937 17.8813 13.1687 16.8266 12.7749L16.4844 12.6483L16.7609 12.4421C16.9109 12.3296 17.2016 12.0671 17.4125 11.8608C18.4766 10.7921 19.1375 9.49834 19.3766 7.99834C19.4656 7.4124 19.4375 6.06709 19.3203 5.53271C18.8516 3.39053 17.4922 1.65146 15.5234 0.667089C15.1719 0.493652 14.3703 0.221777 13.9063 0.118652C13.4281 0.0108395 11.8625 -0.0172863 11.375 0.0670891ZM13.4 1.98896C14.4594 2.19053 15.4016 2.70615 16.1375 3.48428C17.0563 4.44521 17.5156 5.60303 17.5156 6.93896C17.5156 8.2749 17.0563 9.43271 16.1375 10.3937C15.1672 11.4202 13.9156 11.9546 12.5 11.9546C11.0844 11.9546 9.83281 11.4202 8.8625 10.3937C7.94375 9.43271 7.48438 8.2749 7.48438 6.93896C7.48438 6.3249 7.55469 5.87021 7.7375 5.32646C8.30469 3.63428 9.78125 2.3499 11.5625 1.99365C11.9797 1.90928 12.9734 1.90928 13.4 1.98896Z" fill="white"/>
</g>
<defs>
<clipPath id="clip0_30_1564">
<rect width="24" height="24" fill="white" transform="translate(0.5 0.00146484)"/>
</clipPath>
</defs>
</svg>
